<svg enable-background="new 0 0 24 24" height="512" viewBox="0 0 24 24" width="512" xmlns="http://www.w3.org/2000/svg"><path d="m12.683 4.26-10.911-4.156c-.152-.069-.32-.104-.501-.104-.701 0-1.271.571-1.271 1.272 0 .176.034.342.085.455l4.174 10.956c.185.488.662.817 1.186.817.551 0 1.037-.352 1.209-.876l1.473-4.497 4.494-1.472c.525-.171.879-.657.879-1.209 0-.525-.329-1.002-.817-1.186z" fill="#607d8b"/><circle cx="16.5" cy="16.5" fill="#4caf50" r="7.5"/><path d="m19.25 17.25h-2v2c0 .414-.336.75-.75.75s-.75-.336-.75-.75v-2h-2c-.414 0-.75-.336-.75-.75s.336-.75.75-.75h2v-2c0-.414.336-.75.75-.75s.75.336.75.75v2h2c.414 0 .75.336.75.75s-.336.75-.75.75z" fill="#fff"/><path d="m16.5 20c-.414 0-.75-.336-.75-.75v-5.5c0-.414.336-.75.75-.75s.75.336.75.75v5.5c0 .414-.336.75-.75.75z"/><path d="m19.25 17.25h-5.5c-.414 0-.75-.336-.75-.75s.336-.75.75-.75h5.5c.414 0 .75.336.75.75s-.336.75-.75.75z"/><path d="m5.446 13.5c-.524 0-1.001-.329-1.187-.818l-4.173-10.955c-.051-.107-.086-.275-.086-.456 0-.701.571-1.271 1.272-1.271.176 0 .342.034.492.101l10.919 4.158c.488.185.817.662.817 1.186 0 .551-.352 1.037-.876 1.209l-4.497 1.473-1.473 4.496c-.17.523-.656.877-1.208.877zm-3.779-11.832 3.763 9.874 1.39-4.243c.075-.227.252-.405.479-.479l4.243-1.39zm10.483 3.993h.01zm-10.958-4.174c.004.001.008.003.013.004zm.277-.34.018.047c-.005-.013-.011-.03-.018-.047z"/><path d="m16.5 24c-4.136 0-7.5-3.364-7.5-7.5s3.364-7.5 7.5-7.5 7.5 3.364 7.5 7.5-3.364 7.5-7.5 7.5zm0-13.5c-3.309 0-6 2.691-6 6s2.691 6 6 6 6-2.691 6-6-2.691-6-6-6z"/></svg>