<?xml version="1.0" encoding="UTF-8" standalone="no"?>
<!DOCTYPE svg PUBLIC "-//W3C//DTD SVG 1.1//EN" "http://www.w3.org/Graphics/SVG/1.1/DTD/svg11.dtd">
<svg version="1.1" xmlns="http://www.w3.org/2000/svg" xmlns:xlink="http://www.w3.org/1999/xlink" preserveAspectRatio="xMidYMid meet" viewBox="0 0 640 640" width="640" height="640"><defs><path d="M515.49 171.09C515.49 170.92 515.49 169.55 515.49 169.38C515.49 126.85 501.22 89.92 473.06 59.6C472.93 59.45 472.79 59.31 472.65 59.17C434.55 20.46 377.54 0 307.78 0C288.3 0 132.44 0 112.96 0C101.65 0 92.49 9.17 92.49 20.47C92.49 80.38 92.49 559.62 92.49 619.53C92.49 630.83 101.65 640 112.96 640C133.51 640 297.91 640 318.46 640C385.3 640 441.98 623.59 482.35 592.54C524.98 559.75 547.51 512.56 547.51 456.07C547.51 455.9 547.51 454.53 547.51 454.36C547.51 387.25 514.22 336.55 450.66 305.86C485.31 279.85 515.49 238 515.49 171.09ZM197.49 538.29L197.49 367.86C264.16 367.86 301.19 367.86 308.6 367.86C353.5 367.86 389 375.94 411.26 391.22C431.19 404.9 440.87 424.15 440.87 450.08C440.87 450.25 440.87 451.62 440.87 451.79C440.87 529.87 356.41 538.29 320.1 538.29C303.75 538.29 262.88 538.29 197.49 538.29ZM197.49 267.01L197.49 101.71C260.22 101.71 295.06 101.71 302.03 101.71C369.91 101.71 408.84 129.81 408.84 178.8C408.84 178.97 408.84 180.33 408.84 180.51C408.84 255.77 338.8 267.01 297.06 267.01C283.78 267.01 250.59 267.01 197.49 267.01Z" id="p57kPNiBg"></path></defs><g><g><g><use xlink:href="#p57kPNiBg" opacity="1" fill="#ffffff" fill-opacity="1"></use><g><use xlink:href="#p57kPNiBg" opacity="1" fill-opacity="0" stroke="#000000" stroke-width="1" stroke-opacity="0"></use></g></g></g></g></svg>