<?xml version="1.0" encoding="UTF-8" standalone="no"?>
<!DOCTYPE svg PUBLIC "-//W3C//DTD SVG 1.1//EN" "http://www.w3.org/Graphics/SVG/1.1/DTD/svg11.dtd">
<svg version="1.1" xmlns="http://www.w3.org/2000/svg" xmlns:xlink="http://www.w3.org/1999/xlink" preserveAspectRatio="xMidYMid meet" viewBox="0 0 640 640" width="640" height="640"><defs><path d="M396.34 247.96C396.34 275.86 396.34 499.08 396.34 526.98C396.34 535.13 402.95 541.75 411.11 541.75C419.26 541.75 425.87 535.13 425.87 526.98C425.87 499.08 425.87 275.86 425.87 247.96C425.87 239.81 419.26 233.2 411.11 233.2C402.95 233.2 396.34 239.81 396.34 247.96Z" id="b1vAAHDRRc"></path><path d="M222.14 247.96C222.14 275.86 222.14 499.08 222.14 526.98C222.14 535.13 228.75 541.75 236.9 541.75C245.06 541.75 251.67 535.13 251.67 526.98C251.67 499.08 251.67 275.86 251.67 247.96C251.67 239.81 245.06 233.2 236.9 233.2C228.75 233.2 222.14 239.81 222.14 247.96Z" id="a7t6Ta2hRu"></path><path d="M109.94 556.21C109.94 577.71 117.82 597.9 131.59 612.38C145.3 626.91 164.38 635.16 184.34 635.19C212.28 635.19 435.73 635.19 463.67 635.19C483.64 635.16 502.71 626.91 516.41 612.38C530.19 597.9 538.07 577.71 538.07 556.21C538.07 519.84 538.07 228.85 538.07 192.48C565.44 185.21 583.18 158.77 579.52 130.68C575.85 102.59 551.93 81.58 523.6 81.58C518.56 81.58 493.37 81.58 448.01 81.58C448.01 70.51 448.01 64.35 448.01 63.12C448.1 47.61 441.96 32.7 430.98 21.74C419.99 10.78 405.07 4.68 389.55 4.81C376.44 4.81 271.57 4.81 258.46 4.81C242.94 4.68 228.02 10.78 217.03 21.74C206.04 32.7 199.91 47.61 199.99 63.12C199.99 64.35 199.99 70.51 199.99 81.58C154.64 81.58 129.45 81.58 124.41 81.58C96.08 81.58 72.16 102.59 68.49 130.68C64.83 158.77 82.56 185.21 109.94 192.48C109.94 192.48 109.94 519.84 109.94 556.21ZM184.34 605.67C159.1 605.67 139.47 583.98 139.47 556.21C139.47 532.05 139.47 411.24 139.47 193.78L508.54 193.78C508.54 411.24 508.54 532.05 508.54 556.21C508.54 583.98 488.91 605.67 463.67 605.67C407.8 605.67 212.28 605.67 184.34 605.67ZM229.52 63.12C229.42 55.44 232.44 48.04 237.9 42.61C243.35 37.18 250.77 34.2 258.46 34.34C271.57 34.34 376.44 34.34 389.55 34.34C397.24 34.2 404.66 37.18 410.11 42.61C415.56 48.03 418.59 55.44 418.49 63.12C418.49 64.35 418.49 70.51 418.49 81.58L229.52 81.58C229.52 71.74 229.52 65.58 229.52 63.12ZM523.6 111.1C538.28 111.1 550.17 123 550.17 137.68C550.17 152.35 538.28 164.25 523.6 164.25C483.68 164.25 164.33 164.25 124.41 164.25C109.73 164.25 97.84 152.35 97.84 137.68C97.84 123 109.73 111.1 124.41 111.1C204.25 111.1 483.68 111.1 523.6 111.1Z" id="b1G0OQr9pe"></path><path d="M309.24 247.96C309.24 275.86 309.24 499.08 309.24 526.98C309.24 535.13 315.85 541.75 324 541.75C332.16 541.75 338.77 535.13 338.77 526.98C338.77 499.08 338.77 275.86 338.77 247.96C338.77 239.81 332.16 233.2 324 233.2C315.85 233.2 309.24 239.81 309.24 247.96Z" id="i1QpsdV86P"></path></defs><g><g><g><use xlink:href="#b1vAAHDRRc" opacity="1" fill="#ffaeae" fill-opacity="1"></use><g><use xlink:href="#b1vAAHDRRc" opacity="1" fill-opacity="0" stroke="#000000" stroke-width="1" stroke-opacity="0"></use></g></g><g><use xlink:href="#a7t6Ta2hRu" opacity="1" fill="#ffaeae" fill-opacity="1"></use><g><use xlink:href="#a7t6Ta2hRu" opacity="1" fill-opacity="0" stroke="#000000" stroke-width="1" stroke-opacity="0"></use></g></g><g><use xlink:href="#b1G0OQr9pe" opacity="1" fill="#ffaeae" fill-opacity="1"></use><g><use xlink:href="#b1G0OQr9pe" opacity="1" fill-opacity="0" stroke="#000000" stroke-width="1" stroke-opacity="0"></use></g></g><g><use xlink:href="#i1QpsdV86P" opacity="1" fill="#ffaeae" fill-opacity="1"></use><g><use xlink:href="#i1QpsdV86P" opacity="1" fill-opacity="0" stroke="#000000" stroke-width="1" stroke-opacity="0"></use></g></g></g></g></svg>