<?xml version="1.0" encoding="UTF-8" standalone="no"?>
<!DOCTYPE svg PUBLIC "-//W3C//DTD SVG 1.1//EN" "http://www.w3.org/Graphics/SVG/1.1/DTD/svg11.dtd">
<svg version="1.1" xmlns="http://www.w3.org/2000/svg" xmlns:xlink="http://www.w3.org/1999/xlink" preserveAspectRatio="xMidYMid meet" viewBox="0 0 640 640" width="640" height="640"><defs><path d="M240.12 117.3L320.16 117.3L320.16 158.79L400.2 158.79L400.2 34.33L0 34.33L0 158.79L80.04 158.79L80.04 117.3L160.08 117.3L160.08 532.19L80.04 532.19L80.04 615.16L320.12 615.16L320.12 532.19L240.12 532.19L240.12 117.3Z" id="c4bP49JGTk"></path><path d="M320.16 366.23L400.2 366.23L400.2 324.75L440.22 324.75L440.22 532.19L400.2 532.19L400.2 615.16L560.28 615.16L560.28 532.19L520.26 532.19L520.26 324.74L560.28 324.74L560.28 366.23L640.32 366.23L640.32 241.77L320.16 241.77L320.16 366.23Z" id="b3kXvthYJp"></path></defs><g><g><g><use xlink:href="#c4bP49JGTk" opacity="1" fill="#ffffff" fill-opacity="1"></use><g><use xlink:href="#c4bP49JGTk" opacity="1" fill-opacity="0" stroke="#000000" stroke-width="1" stroke-opacity="0"></use></g></g><g><use xlink:href="#b3kXvthYJp" opacity="1" fill="#ffffff" fill-opacity="1"></use><g><use xlink:href="#b3kXvthYJp" opacity="1" fill-opacity="0" stroke="#000000" stroke-width="1" stroke-opacity="0"></use></g></g></g></g></svg>