<?xml version="1.0" encoding="UTF-8"?>
<svg width="42px" height="42px" viewBox="0 0 42 42" version="1.1" xmlns="http://www.w3.org/2000/svg" xmlns:xlink="http://www.w3.org/1999/xlink">
    <title>image</title>
    <g id="Page-1" stroke="none" stroke-width="1" fill="none" fill-rule="evenodd">
        <g id="beauty-slides----opened-menu" transform="translate(-1587.000000, -529.000000)" fill="#FFFFFF" fill-rule="nonzero">
            <g id="Topbar" transform="translate(74.000000, 46.000000)">
                <g id="Instruments" transform="translate(1493.000000, 25.000000)">
                    <g id="image" transform="translate(20.000000, 458.000000)">
                        <path d="M36.6351563,0 L5.36484375,0 C2.40351563,0 0,2.41171875 0,5.36484375 L0,36.6269531 C0,39.5882813 2.40351563,42 5.36484375,42 L36.6351563,42 C39.5964844,42 42,39.5882813 42,36.6351563 L42,5.36484375 C42,2.41171875 39.5964844,0 36.6351563,0 Z M39.5226563,36.6351562 C39.5226563,38.2265625 38.2265625,39.5308594 36.6269531,39.5308594 L5.36484375,39.5308594 C3.7734375,39.5308594 2.46914063,38.2347656 2.46914063,36.6351562 L2.46914063,32.1234375 L10.6148438,25.1917969 C10.9101562,24.9375 11.3449219,24.9375 11.6484375,25.1835937 L16.7507812,29.4164063 C17.2429687,29.8265625 17.9648438,29.79375 18.4160156,29.3425781 L30.5320312,17.2019531 C30.7535156,16.9804688 31.0078125,16.9640625 31.1390625,16.9640625 C31.2703125,16.9722656 31.5246094,17.0214844 31.7214844,17.259375 L39.5308594,26.8734375 L39.5226563,36.6351562 L39.5226563,36.6351562 Z M39.5226562,22.9605469 L33.6328125,15.7089844 C33.0503906,14.9871094 32.1808594,14.5523438 31.2621094,14.503125 C30.3351563,14.4539063 29.4328125,14.8066406 28.7765625,15.4628906 L17.45625,26.7996094 L13.2234375,23.2886719 C11.9929687,22.2714844 10.2210938,22.2796875 9.00703125,23.3132812 L2.47734375,28.875 L2.47734375,5.36484375 C2.47734375,3.7734375 3.7734375,2.47734375 5.36484375,2.47734375 L36.6351562,2.47734375 C38.2265625,2.47734375 39.5308594,3.7734375 39.5308594,5.37304688 L39.5308594,22.9605469 L39.5226562,22.9605469 Z" id="Shape"></path>
                        <path d="M13,5 C9.69050894,5 7,7.69050894 7,11 C7,14.3094911 9.69050894,17 13,17 C16.3094911,17 19,14.3094911 19,11 C19,7.69050894 16.3094911,5 13,5 Z M13,14.5158184 C11.0605227,14.5158184 9.48418157,12.9394773 9.48418157,11 C9.48418157,9.0605227 11.0605227,7.48418157 13,7.48418157 C14.9394773,7.48418157 16.5158184,9.0605227 16.5158184,11 C16.5158184,12.9394773 14.9312242,14.5158184 13,14.5158184 Z" id="Shape"></path>
                    </g>
                </g>
            </g>
        </g>
    </g>
</svg>