<?xml version="1.0" encoding="UTF-8" standalone="no"?>
<!DOCTYPE svg PUBLIC "-//W3C//DTD SVG 1.1//EN" "http://www.w3.org/Graphics/SVG/1.1/DTD/svg11.dtd">
<svg version="1.1" xmlns="http://www.w3.org/2000/svg" xmlns:xlink="http://www.w3.org/1999/xlink" preserveAspectRatio="xMidYMid meet" viewBox="0 0 640 640" width="640" height="640"><defs><path d="M567.03 2.25C532.28 2.25 254.28 2.25 219.53 2.25C213.53 2.25 208.31 6.35 206.9 12.18C205.47 18.1 194.02 65.46 192.59 71.38C191.66 75.25 192.55 79.33 195.01 82.46C197.47 85.58 201.23 87.42 205.22 87.42C213.36 87.42 254.06 87.42 327.32 87.42L215.63 552.58C146.8 552.58 108.56 552.58 100.91 552.58C94.91 552.58 89.69 556.69 88.29 562.51C86.85 568.43 75.4 615.79 73.97 621.71C73.03 625.58 73.92 629.67 76.39 632.79C78.85 635.91 82.61 637.75 86.59 637.75C121.34 637.75 399.34 637.75 434.09 637.75C440.09 637.75 445.31 633.64 446.71 627.82C448.14 621.9 459.59 574.55 461.02 568.63C461.96 564.75 461.07 560.67 458.6 557.55C456.14 554.42 452.38 552.58 448.4 552.58C440.38 552.58 400.29 552.58 328.12 552.58L439.81 87.42C507.55 87.42 545.18 87.42 552.71 87.42C558.71 87.42 563.92 83.31 565.32 77.49C566.76 71.57 578.21 24.21 579.64 18.29C580.58 14.42 579.7 10.33 577.23 7.2C574.77 4.08 571.01 2.25 567.03 2.25Z" id="bS0PuNq0T"></path></defs><g><g><g><use xlink:href="#bS0PuNq0T" opacity="1" fill="#ffffff" fill-opacity="1"></use><g><use xlink:href="#bS0PuNq0T" opacity="1" fill-opacity="0" stroke="#000000" stroke-width="1" stroke-opacity="0"></use></g></g></g></g></svg>