<svg enable-background="new 0 0 24 24" height="512" viewBox="0 0 24 24" width="512" xmlns="http://www.w3.org/2000/svg"><path d="m16.65.641h-13.3c-1.574 0-2.85 1.262-2.85 2.819v13.154c0 1.557 1.276 2.819 2.85 2.819h13.3c1.574 0 2.85-1.262 2.85-2.819v-13.154c0-1.557-1.276-2.819-2.85-2.819z" fill="#607d8b"/><path d="m15 9.473c-3.136 0-5.688 2.557-5.688 5.7s2.551 5.7 5.688 5.7c1.226 0 2.36-.395 3.29-1.059l1.34-1.343c.663-.932 1.057-2.068 1.057-3.297 0-3.145-2.551-5.701-5.687-5.701z" fill="#4caf50"/><path d="m17.25 15.923h-4.5c-.414 0-.75-.336-.75-.75s.336-.75.75-.75h4.5c.414 0 .75.336.75.75s-.336.75-.75.75z"/><path d="m17.25 15.923h-4.5c-.414 0-.75-.336-.75-.75s.336-.75.75-.75h4.5c.414 0 .75.336.75.75s-.336.75-.75.75z"/><path d="m15 18.178c-.414 0-.75-.336-.75-.75v-4.51c0-.414.336-.75.75-.75s.75.336.75.75v4.51c0 .414-.336.75-.75.75z"/><path d="m7.25 20.182h-4.5c-1.517 0-2.75-1.236-2.75-2.754v-14.532c0-1.519 1.233-2.754 2.75-2.754h14.75c1.517 0 2.75 1.236 2.75 2.754v4.51c0 .414-.336.75-.75.75s-.75-.336-.75-.75v-4.51c0-.692-.561-1.254-1.25-1.254h-14.75c-.689 0-1.25.562-1.25 1.254v14.532c0 .692.561 1.254 1.25 1.254h4.5c.414 0 .75.336.75.75s-.336.75-.75.75z"/><path d="m15 21.184c-3.309 0-6-2.697-6-6.011 0-3.315 2.691-6.012 6-6.012s6 2.697 6 6.012c0 3.314-2.691 6.011-6 6.011zm0-10.523c-2.481 0-4.5 2.024-4.5 4.512 0 2.487 2.019 4.511 4.5 4.511s4.5-2.024 4.5-4.511c0-2.488-2.019-4.512-4.5-4.512z"/><path d="m23.25 24.19c-.192 0-.385-.073-.531-.22l-4.54-4.55c-.292-.293-.292-.768.002-1.061.292-.293.769-.292 1.061.001l4.54 4.55c.292.293.292.768-.002 1.061-.146.146-.339.219-.53.219z"/></svg>