<?xml version="1.0" encoding="UTF-8" standalone="no"?>
<!DOCTYPE svg PUBLIC "-//W3C//DTD SVG 1.1//EN" "http://www.w3.org/Graphics/SVG/1.1/DTD/svg11.dtd">
<svg version="1.1" xmlns="http://www.w3.org/2000/svg" xmlns:xlink="http://www.w3.org/1999/xlink" preserveAspectRatio="xMidYMid meet" viewBox="0 0 640 640" width="640" height="640"><defs><path d="M480 0C480 0 480 0 480 0C480 24 480 37.33 480 40C480 40 480 40 480 40C192 40 32 40 0 40C0 40 0 40 0 40C0 16 0 2.67 0 0C0 0 0 0 0 0C288 0 448 0 480 0Z" id="cEqVz9dSl"></path><path d="M640 120C640 120 640 120 640 120C640 144 640 157.33 640 160C640 160 640 160 640 160C400 160 266.67 160 240 160C240 160 240 160 240 160C240 136 240 122.67 240 120C240 120 240 120 240 120C480 120 613.33 120 640 120Z" id="a1XHhfxfzZ"></path><path d="M640 240C640 240 640 240 640 240C640 264 640 277.33 640 280C640 280 640 280 640 280C256 280 42.67 280 0 280C0 280 0 280 0 280C0 256 0 242.67 0 240C0 240 0 240 0 240C384 240 597.33 240 640 240Z" id="c5WDXIB1C"></path><path d="M640 480C640 480 640 480 640 480C640 504 640 517.33 640 520C640 520 640 520 640 520C256 520 42.67 520 0 520C0 520 0 520 0 520C0 496 0 482.67 0 480C0 480 0 480 0 480C384 480 597.33 480 640 480Z" id="eg6XN2pGn"></path><path d="M640 360C640 360 640 360 640 360C640 384 640 397.33 640 400C640 400 640 400 640 400C400 400 266.67 400 240 400C240 400 240 400 240 400C240 376 240 362.67 240 360C240 360 240 360 240 360C480 360 613.33 360 640 360Z" id="b3vb7TB55"></path><path d="M640 600C640 600 640 600 640 600C640 624 640 637.33 640 640C640 640 640 640 640 640C400 640 266.67 640 240 640C240 640 240 640 240 640C240 616 240 602.67 240 600C240 600 240 600 240 600C480 600 613.33 600 640 600Z" id="anDDIdQBe"></path><path d="M640 0C640 0 640 0 640 0C640 24 640 37.33 640 40C640 40 640 40 640 40C616 40 602.67 40 600 40C600 40 600 40 600 40C600 16 600 2.67 600 0C600 0 600 0 600 0C624 0 637.33 0 640 0Z" id="c8DSPCTJM"></path><path d="M560 0C560 0 560 0 560 0C560 24 560 37.33 560 40C560 40 560 40 560 40C536 40 522.67 40 520 40C520 40 520 40 520 40C520 16 520 2.67 520 0C520 0 520 0 520 0C544 0 557.33 0 560 0Z" id="clsJNoeGa"></path></defs><g><g><g><use xlink:href="#cEqVz9dSl" opacity="1" fill="#ffffff" fill-opacity="1"></use><g><use xlink:href="#cEqVz9dSl" opacity="1" fill-opacity="0" stroke="#000000" stroke-width="1" stroke-opacity="0"></use></g></g><g><use xlink:href="#a1XHhfxfzZ" opacity="1" fill="#ffffff" fill-opacity="1"></use><g><use xlink:href="#a1XHhfxfzZ" opacity="1" fill-opacity="0" stroke="#000000" stroke-width="1" stroke-opacity="0"></use></g></g><g><use xlink:href="#c5WDXIB1C" opacity="1" fill="#ffffff" fill-opacity="1"></use><g><use xlink:href="#c5WDXIB1C" opacity="1" fill-opacity="0" stroke="#000000" stroke-width="1" stroke-opacity="0"></use></g></g><g><use xlink:href="#eg6XN2pGn" opacity="1" fill="#ffffff" fill-opacity="1"></use><g><use xlink:href="#eg6XN2pGn" opacity="1" fill-opacity="0" stroke="#000000" stroke-width="1" stroke-opacity="0"></use></g></g><g><use xlink:href="#b3vb7TB55" opacity="1" fill="#ffffff" fill-opacity="1"></use><g><use xlink:href="#b3vb7TB55" opacity="1" fill-opacity="0" stroke="#000000" stroke-width="1" stroke-opacity="0"></use></g></g><g><use xlink:href="#anDDIdQBe" opacity="1" fill="#ffffff" fill-opacity="1"></use><g><use xlink:href="#anDDIdQBe" opacity="1" fill-opacity="0" stroke="#000000" stroke-width="1" stroke-opacity="0"></use></g></g><g><use xlink:href="#c8DSPCTJM" opacity="1" fill="#ffffff" fill-opacity="1"></use><g><use xlink:href="#c8DSPCTJM" opacity="1" fill-opacity="0" stroke="#000000" stroke-width="1" stroke-opacity="0"></use></g></g><g><use xlink:href="#clsJNoeGa" opacity="1" fill="#ffffff" fill-opacity="1"></use><g><use xlink:href="#clsJNoeGa" opacity="1" fill-opacity="0" stroke="#000000" stroke-width="1" stroke-opacity="0"></use></g></g></g></g></svg>