<?xml version="1.0" encoding="UTF-8" standalone="no"?>
<!DOCTYPE svg PUBLIC "-//W3C//DTD SVG 1.1//EN" "http://www.w3.org/Graphics/SVG/1.1/DTD/svg11.dtd">
<svg version="1.1" xmlns="http://www.w3.org/2000/svg" xmlns:xlink="http://www.w3.org/1999/xlink" preserveAspectRatio="xMidYMid meet" viewBox="0 0 640 640" width="640" height="640"><defs><path d="M480 0C480 0 480 0 480 0C480 24 480 37.33 480 40C480 40 480 40 480 40C192 40 32 40 0 40C0 40 0 40 0 40C0 16 0 2.67 0 0C0 0 0 0 0 0C288 0 448 0 480 0Z" id="a1Brad0wUq"></path><path d="M520 120C520 120 520 120 520 120C520 144 520 157.33 520 160C520 160 520 160 520 160C280 160 146.67 160 120 160C120 160 120 160 120 160C120 136 120 122.67 120 120C120 120 120 120 120 120C360 120 493.33 120 520 120Z" id="ef6lQUSXt"></path><path d="M640 240C640 240 640 240 640 240C640 264 640 277.33 640 280C640 280 640 280 640 280C256 280 42.67 280 0 280C0 280 0 280 0 280C0 256 0 242.67 0 240C0 240 0 240 0 240C384 240 597.33 240 640 240Z" id="d2jan6CvBN"></path><path d="M640 480C640 480 640 480 640 480C640 504 640 517.33 640 520C640 520 640 520 640 520C256 520 42.67 520 0 520C0 520 0 520 0 520C0 496 0 482.67 0 480C0 480 0 480 0 480C384 480 597.33 480 640 480Z" id="hOELYBDkD"></path><path d="M520 360C520 360 520 360 520 360C520 384 520 397.33 520 400C520 400 520 400 520 400C280 400 146.67 400 120 400C120 400 120 400 120 400C120 376 120 362.67 120 360C120 360 120 360 120 360C360 360 493.33 360 520 360Z" id="ahQhQSzMj"></path><path d="M520 600C520 600 520 600 520 600C520 624 520 637.33 520 640C520 640 520 640 520 640C280 640 146.67 640 120 640C120 640 120 640 120 640C120 616 120 602.67 120 600C120 600 120 600 120 600C360 600 493.33 600 520 600Z" id="a3uDhMhqIo"></path><path d="M640 0C640 0 640 0 640 0C640 24 640 37.33 640 40C640 40 640 40 640 40C616 40 602.67 40 600 40C600 40 600 40 600 40C600 16 600 2.67 600 0C600 0 600 0 600 0C624 0 637.33 0 640 0Z" id="d3dniq9OdU"></path><path d="M560 0C560 0 560 0 560 0C560 24 560 37.33 560 40C560 40 560 40 560 40C536 40 522.67 40 520 40C520 40 520 40 520 40C520 16 520 2.67 520 0C520 0 520 0 520 0C544 0 557.33 0 560 0Z" id="b7groVTBw"></path></defs><g><g><g><use xlink:href="#a1Brad0wUq" opacity="1" fill="#ffffff" fill-opacity="1"></use><g><use xlink:href="#a1Brad0wUq" opacity="1" fill-opacity="0" stroke="#000000" stroke-width="1" stroke-opacity="0"></use></g></g><g><use xlink:href="#ef6lQUSXt" opacity="1" fill="#ffffff" fill-opacity="1"></use><g><use xlink:href="#ef6lQUSXt" opacity="1" fill-opacity="0" stroke="#000000" stroke-width="1" stroke-opacity="0"></use></g></g><g><use xlink:href="#d2jan6CvBN" opacity="1" fill="#ffffff" fill-opacity="1"></use><g><use xlink:href="#d2jan6CvBN" opacity="1" fill-opacity="0" stroke="#000000" stroke-width="1" stroke-opacity="0"></use></g></g><g><use xlink:href="#hOELYBDkD" opacity="1" fill="#ffffff" fill-opacity="1"></use><g><use xlink:href="#hOELYBDkD" opacity="1" fill-opacity="0" stroke="#000000" stroke-width="1" stroke-opacity="0"></use></g></g><g><use xlink:href="#ahQhQSzMj" opacity="1" fill="#ffffff" fill-opacity="1"></use><g><use xlink:href="#ahQhQSzMj" opacity="1" fill-opacity="0" stroke="#000000" stroke-width="1" stroke-opacity="0"></use></g></g><g><use xlink:href="#a3uDhMhqIo" opacity="1" fill="#ffffff" fill-opacity="1"></use><g><use xlink:href="#a3uDhMhqIo" opacity="1" fill-opacity="0" stroke="#000000" stroke-width="1" stroke-opacity="0"></use></g></g><g><use xlink:href="#d3dniq9OdU" opacity="1" fill="#ffffff" fill-opacity="1"></use><g><use xlink:href="#d3dniq9OdU" opacity="1" fill-opacity="0" stroke="#000000" stroke-width="1" stroke-opacity="0"></use></g></g><g><use xlink:href="#b7groVTBw" opacity="1" fill="#ffffff" fill-opacity="1"></use><g><use xlink:href="#b7groVTBw" opacity="1" fill-opacity="0" stroke="#000000" stroke-width="1" stroke-opacity="0"></use></g></g></g></g></svg>