<?xml version="1.0" encoding="UTF-8" standalone="no"?>
<!DOCTYPE svg PUBLIC "-//W3C//DTD SVG 1.1//EN" "http://www.w3.org/Graphics/SVG/1.1/DTD/svg11.dtd">
<svg version="1.1" xmlns="http://www.w3.org/2000/svg" xmlns:xlink="http://www.w3.org/1999/xlink" preserveAspectRatio="xMidYMid meet" viewBox="0 0 640 640" width="640" height="640"><defs><path d="M480 0C480 0 480 0 480 0C480 24 480 37.33 480 40C480 40 480 40 480 40C192 40 32 40 0 40C0 40 0 40 0 40C0 16 0 2.67 0 0C0 0 0 0 0 0C288 0 448 0 480 0Z" id="b5P5JsRI0"></path><path d="M400 120C400 120 400 120 400 120C400 144 400 157.33 400 160C400 160 400 160 400 160C160 160 26.67 160 0 160C0 160 0 160 0 160C0 136 0 122.67 0 120C0 120 0 120 0 120C240 120 373.33 120 400 120Z" id="aFqTzod2y"></path><path d="M640 240C640 240 640 240 640 240C640 264 640 277.33 640 280C640 280 640 280 640 280C256 280 42.67 280 0 280C0 280 0 280 0 280C0 256 0 242.67 0 240C0 240 0 240 0 240C384 240 597.33 240 640 240Z" id="a4VnGXEPY"></path><path d="M640 480C640 480 640 480 640 480C640 504 640 517.33 640 520C640 520 640 520 640 520C256 520 42.67 520 0 520C0 520 0 520 0 520C0 496 0 482.67 0 480C0 480 0 480 0 480C384 480 597.33 480 640 480Z" id="aqpnb41Eq"></path><path d="M400 360C400 360 400 360 400 360C400 384 400 397.33 400 400C400 400 400 400 400 400C160 400 26.67 400 0 400C0 400 0 400 0 400C0 376 0 362.67 0 360C0 360 0 360 0 360C240 360 373.33 360 400 360Z" id="cbVbx0woG"></path><path d="M400 600C400 600 400 600 400 600C400 624 400 637.33 400 640C400 640 400 640 400 640C160 640 26.67 640 0 640C0 640 0 640 0 640C0 616 0 602.67 0 600C0 600 0 600 0 600C240 600 373.33 600 400 600Z" id="c5u6X3qKuo"></path><path d="M640 0C640 0 640 0 640 0C640 24 640 37.33 640 40C640 40 640 40 640 40C616 40 602.67 40 600 40C600 40 600 40 600 40C600 16 600 2.67 600 0C600 0 600 0 600 0C624 0 637.33 0 640 0Z" id="eafWFOBBov"></path><path d="M560 0C560 0 560 0 560 0C560 24 560 37.33 560 40C560 40 560 40 560 40C536 40 522.67 40 520 40C520 40 520 40 520 40C520 16 520 2.67 520 0C520 0 520 0 520 0C544 0 557.33 0 560 0Z" id="bd3nO5pIT"></path></defs><g><g><g><use xlink:href="#b5P5JsRI0" opacity="1" fill="#ffffff" fill-opacity="1"></use><g><use xlink:href="#b5P5JsRI0" opacity="1" fill-opacity="0" stroke="#000000" stroke-width="1" stroke-opacity="0"></use></g></g><g><use xlink:href="#aFqTzod2y" opacity="1" fill="#ffffff" fill-opacity="1"></use><g><use xlink:href="#aFqTzod2y" opacity="1" fill-opacity="0" stroke="#000000" stroke-width="1" stroke-opacity="0"></use></g></g><g><use xlink:href="#a4VnGXEPY" opacity="1" fill="#ffffff" fill-opacity="1"></use><g><use xlink:href="#a4VnGXEPY" opacity="1" fill-opacity="0" stroke="#000000" stroke-width="1" stroke-opacity="0"></use></g></g><g><use xlink:href="#aqpnb41Eq" opacity="1" fill="#ffffff" fill-opacity="1"></use><g><use xlink:href="#aqpnb41Eq" opacity="1" fill-opacity="0" stroke="#000000" stroke-width="1" stroke-opacity="0"></use></g></g><g><use xlink:href="#cbVbx0woG" opacity="1" fill="#ffffff" fill-opacity="1"></use><g><use xlink:href="#cbVbx0woG" opacity="1" fill-opacity="0" stroke="#000000" stroke-width="1" stroke-opacity="0"></use></g></g><g><use xlink:href="#c5u6X3qKuo" opacity="1" fill="#ffffff" fill-opacity="1"></use><g><use xlink:href="#c5u6X3qKuo" opacity="1" fill-opacity="0" stroke="#000000" stroke-width="1" stroke-opacity="0"></use></g></g><g><use xlink:href="#eafWFOBBov" opacity="1" fill="#ffffff" fill-opacity="1"></use><g><use xlink:href="#eafWFOBBov" opacity="1" fill-opacity="0" stroke="#000000" stroke-width="1" stroke-opacity="0"></use></g></g><g><use xlink:href="#bd3nO5pIT" opacity="1" fill="#ffffff" fill-opacity="1"></use><g><use xlink:href="#bd3nO5pIT" opacity="1" fill-opacity="0" stroke="#000000" stroke-width="1" stroke-opacity="0"></use></g></g></g></g></svg>