<?xml version="1.0" encoding="UTF-8" standalone="no"?>
<!DOCTYPE svg PUBLIC "-//W3C//DTD SVG 1.1//EN" "http://www.w3.org/Graphics/SVG/1.1/DTD/svg11.dtd">
<svg version="1.1" xmlns="http://www.w3.org/2000/svg" xmlns:xlink="http://www.w3.org/1999/xlink" preserveAspectRatio="xMidYMid meet" viewBox="0 0 640 640" width="640" height="640"><defs><path d="M402.92 302.46C402.92 331.12 396.43 352.24 382.11 365.82C367.78 379.41 347.69 386.2 321.16 386.2C294.41 386.2 273.71 379.35 259.06 365.66C244.42 351.97 237.09 330.91 237.09 302.46C237.09 282.29 237.09 181.47 237.09 0L128.26 0C128.26 181.48 128.26 282.3 128.26 302.46C128.26 355.32 146.5 396.29 181.74 425.37C216.97 454.45 263.66 468.99 321.19 468.99C378.08 468.99 424 454.45 459.14 425.37C494.26 396.29 511.74 355.32 511.74 302.46C511.74 282.3 511.74 181.48 511.74 0L402.92 0C402.92 181.48 402.92 282.3 402.92 302.46Z" id="b2BTnTbHYZ"></path><path d="M617.98 554.49C617.98 554.49 617.98 554.49 617.98 554.49C617.98 605.8 617.98 634.3 617.98 640C617.98 640 617.98 640 617.98 640C260.4 640 61.75 640 22.02 640C22.02 640 22.02 640 22.02 640C22.02 588.7 22.02 560.19 22.02 554.49C22.02 554.49 22.02 554.49 22.02 554.49C379.59 554.49 578.24 554.49 617.98 554.49Z" id="f1DJDxAnte"></path></defs><g><g><g><use xlink:href="#b2BTnTbHYZ" opacity="1" fill="#ffffff" fill-opacity="1"></use><g><use xlink:href="#b2BTnTbHYZ" opacity="1" fill-opacity="0" stroke="#000000" stroke-width="1" stroke-opacity="0"></use></g></g><g><use xlink:href="#f1DJDxAnte" opacity="1" fill="#ffffff" fill-opacity="1"></use><g><use xlink:href="#f1DJDxAnte" opacity="1" fill-opacity="0" stroke="#000000" stroke-width="1" stroke-opacity="0"></use></g></g></g></g></svg>