<svg height="512pt" viewBox="0 0 512 512" width="512pt" xmlns="http://www.w3.org/2000/svg"><path d="m501.332031 0h-490.664062c-5.890625 0-10.667969 4.777344-10.667969 10.667969v490.664062c0 5.890625 4.777344 10.667969 10.667969 10.667969h490.664062c5.890625 0 10.667969-4.777344 10.667969-10.667969v-490.664062c0-5.890625-4.777344-10.667969-10.667969-10.667969zm0 0" fill="#00bcd4"/><path d="m501.332031 512h-490.664062c-5.890625 0-10.667969-4.777344-10.667969-10.667969v-490.664062c0-5.890625 4.777344-10.667969 10.667969-10.667969h490.664062c5.890625 0 10.667969 4.777344 10.667969 10.667969v490.664062c0 5.890625-4.777344 10.667969-10.667969 10.667969zm-480-21.332031h469.335938v-469.335938h-469.335938zm0 0"/></svg>