<?xml version="1.0" encoding="iso-8859-1"?>
<!-- Generator: Adobe Illustrator 19.0.0, SVG Export Plug-In . SVG Version: 6.00 Build 0)  -->
<svg version="1.1" id="Capa_1" xmlns="http://www.w3.org/2000/svg" xmlns:xlink="http://www.w3.org/1999/xlink" x="0px" y="0px"
	 viewBox="0 0 511.984 511.984" style="enable-background:new 0 0 511.984 511.984;" xml:space="preserve">
<path style="fill:#2196F3;" d="M368.001,79.984h-144c-114.875,0-208,93.125-208,208s93.125,208,208,208
	c-88.366,0-160-71.634-160-160s71.634-160,160-160h144v64l128-112l-128-112V79.984z"/>
<path d="M224.001,511.984c-123.712,0-224-100.288-224-224s100.288-224,224-224h128v-48C352.01,7.147,359.181-0.009,368.017,0
	c3.866,0.004,7.6,1.408,10.512,3.952l128,112c6.645,5.825,7.31,15.934,1.485,22.579c-0.462,0.527-0.958,1.023-1.485,1.485l-128,112
	c-6.654,5.814-16.762,5.134-22.576-1.52c-2.544-2.911-3.948-6.645-3.952-10.512v-48h-128c-79.529,0-144,64.471-144,144
	s64.471,144,144,144c8.837,0,16,7.163,16,16S232.838,511.984,224.001,511.984z M224.001,95.984
	c-106.039,0.02-191.983,85.998-191.963,192.037c0.006,29.538,6.826,58.676,19.931,85.147
	C31.433,278.16,91.804,184.493,186.812,163.957c12.22-2.641,24.687-3.973,37.189-3.973h144c8.837,0,16,7.163,16,16v28.8l87.68-76.8
	l-87.68-76.8v28.8c0,8.837-7.163,16-16,16H224.001z"/>
<g>
</g>
<g>
</g>
<g>
</g>
<g>
</g>
<g>
</g>
<g>
</g>
<g>
</g>
<g>
</g>
<g>
</g>
<g>
</g>
<g>
</g>
<g>
</g>
<g>
</g>
<g>
</g>
<g>
</g>
</svg>
